<?xml version="1.0" encoding="UTF-8" standalone="no"?>
<!-- Generator: Adobe Illustrator 24.0.3, SVG Export Plug-In . SVG Version: 6.00 Build 0)  -->

<svg
   version="1.1"
   id="Capa_1"
   x="0px"
   y="0px"
   viewBox="0 0 76 26"
   style="enable-background:new 0 0 76 26;"
   xml:space="preserve"
   sodipodi:docname="logo_delivery.svg"
   inkscape:version="1.3.2 (091e20e, 2023-11-25, custom)"
   xmlns:inkscape="http://www.inkscape.org/namespaces/inkscape"
   xmlns:sodipodi="http://sodipodi.sourceforge.net/DTD/sodipodi-0.dtd"
   xmlns="http://www.w3.org/2000/svg"
   xmlns:svg="http://www.w3.org/2000/svg"><defs
   id="defs4" /><sodipodi:namedview
   id="namedview4"
   pagecolor="#505050"
   bordercolor="#eeeeee"
   borderopacity="1"
   inkscape:showpageshadow="0"
   inkscape:pageopacity="0"
   inkscape:pagecheckerboard="0"
   inkscape:deskcolor="#505050"
   inkscape:zoom="11.302632"
   inkscape:cx="38"
   inkscape:cy="12.961583"
   inkscape:window-width="1440"
   inkscape:window-height="847"
   inkscape:window-x="-8"
   inkscape:window-y="-8"
   inkscape:window-maximized="1"
   inkscape:current-layer="Capa_1" />
<style
   type="text/css"
   id="style1">
	.st0{fill-rule:evenodd;clip-rule:evenodd;fill:#231F20;}
</style>
<g
   id="g4">
	<path
   class="st0"
   d="M16.7,6.8h4.9c0-0.1,0-0.3,0-0.4V4.5c0-0.7-0.3-1.3-0.7-1.7C20.4,2.3,19.8,2,19.1,2c-0.7,0-1.3,0.3-1.7,0.7   c-0.4,0.4-0.7,1.1-0.7,1.7v1.9C16.6,6.5,16.6,6.7,16.7,6.8 M19,22.7h0.1c0.3-0.4,0.8-2.1,1-2.7c0.2-0.4,1.4-3.8,1.4-4.1   c-0.1-0.5-1-0.3-1.5-0.3c-0.6,0-1.2,0-1.8,0c-2.2,0-1.9-0.3-0.4,3.8C18,20,18.8,22.3,19,22.7z M19.5,8.8h-0.7L18.4,9   c0,0.4,0.2,0.2,0.3,0.5c0.1,0.6-1.8,0.8-0.5,1.4c0.6,0.3,0.7,0.4,1.3,0.5c0.2,0,0.1,0,0.3,0.1c-0.9,0.1-2-0.9-2.6-0.4   c-0.2,0.1-0.4,0.5-0.3,0.8c0,0.6,0.8,0.7,1.2,0.9c0.3,0.1,0.5,0.2,0.8,0.3c0.3,0.1,0.7,0.1,0.9,0.2C19,13.5,18,13,17.3,12.8   c-1.1-0.3-1.6,0.1-1.7,1.1c-0.1,1.3,0.6,1.3,1.7,1.3c1,0,2,0,3,0c0.8,0,2.1,0.2,2.3-0.6c0.3-1.2-0.8-1.4-0.9-2   c-0.1-0.5,0.1-0.8-0.3-1.2c-0.2-0.3-0.5-0.4-0.6-0.9c-0.1-0.6-0.1-1.2-1-1.6c-0.1,0,0,0-0.1-0.1L19.5,8.8z M11.9,6.8h4   c0-0.1,0-0.3,0-0.4V4.5c0-0.9,0.4-1.7,1-2.3c0.6-0.6,1.4-1,2.3-1c0.9,0,1.7,0.4,2.3,1c0.6,0.6,1,1.4,1,2.3v1.9c0,0.1,0,0.3,0,0.4   h4.1L27,24.7H11.2L11.9,6.8z"
   id="path1" />
	
	<path
   class="st0"
   d="M54.5,24.6c0,0.1,0,0.1,0.1,0.1h0.2c0.1,0,0.1-0.1,0.1-0.1v-2l1.5-2c0-0.1,0-0.2-0.1-0.2h-0.3   c0,0-0.1,0-0.1,0.1l-1.2,1.7l-1.2-1.7c0,0-0.1-0.1-0.1-0.1h-0.3c-0.1,0-0.1,0.1-0.1,0.2l1.5,2.1V24.6z M50,22.6v-1.8h1.2   c0.5,0,0.9,0.4,0.9,0.9c0,0.5-0.4,0.9-0.9,0.9H50z M49.6,24.6c0,0.1,0,0.1,0.1,0.1h0.2c0.1,0,0.1-0.1,0.1-0.1V23h1.2l0.8,1.6   c0,0,0,0.1,0.1,0.1h0.3c0.1,0,0.1-0.1,0.1-0.2l-0.8-1.6c0.5-0.2,0.9-0.7,0.9-1.3c0-0.7-0.6-1.3-1.3-1.3h-1.6   c-0.1,0-0.1,0.1-0.1,0.1V24.6z M45.9,24.6c0,0.1,0,0.1,0.1,0.1h2.4c0.1,0,0.1-0.1,0.1-0.1v-0.2c0-0.1,0-0.1-0.1-0.1h-2.1v-1.6h1.8   c0.1,0,0.1,0,0.1-0.1v-0.2c0-0.1-0.1-0.1-0.1-0.1h-1.8v-1.5h2.1c0.1,0,0.1-0.1,0.1-0.1v-0.2c0-0.1,0-0.1-0.1-0.1H46   c-0.1,0-0.1,0.1-0.1,0.1V24.6z M43.1,24.7c0,0,0.1,0.1,0.1,0.1h0.1c0,0,0.1,0,0.1-0.1l1.9-4.1c0-0.1,0-0.2-0.1-0.2h-0.2   c0,0-0.1,0-0.1,0.1l-1.5,3.4h0l-1.5-3.4c0,0,0-0.1-0.1-0.1h-0.2c-0.1,0-0.1,0.1-0.1,0.2L43.1,24.7z M40.1,24.6   c0,0.1,0.1,0.1,0.1,0.1h0.2c0.1,0,0.1-0.1,0.1-0.1v-4.1c0-0.1-0.1-0.1-0.1-0.1h-0.2c-0.1,0-0.1,0.1-0.1,0.1V24.6z M37.1,24.6   c0,0.1,0,0.1,0.1,0.1h2.1c0.1,0,0.1-0.1,0.1-0.1v-0.2c0-0.1,0-0.1-0.1-0.1h-1.8v-3.8c0-0.1-0.1-0.1-0.1-0.1h-0.2   c-0.1,0-0.1,0.1-0.1,0.1V24.6z M33.5,24.6c0,0.1,0,0.1,0.1,0.1H36c0.1,0,0.1-0.1,0.1-0.1v-0.2c0-0.1,0-0.1-0.1-0.1h-2.1v-1.6h1.8   c0.1,0,0.1,0,0.1-0.1v-0.2c0-0.1-0.1-0.1-0.1-0.1h-1.8v-1.5H36c0.1,0,0.1-0.1,0.1-0.1v-0.2c0-0.1,0-0.1-0.1-0.1h-2.4   c-0.1,0-0.1,0.1-0.1,0.1V24.6z M29.3,24.3v-3.5h0.9c1,0,1.7,0.7,1.7,1.7c0,1-0.7,1.7-1.7,1.7H29.3z M28.9,24.6c0,0.1,0,0.1,0.1,0.1   h1.4c1.2,0,2.2-1,2.2-2.2c0-1.2-1-2.1-2.2-2.1H29c-0.1,0-0.1,0.1-0.1,0.1V24.6z"
   id="path3" />
	
</g>
<text
   xml:space="preserve"
   style="font-size:8.25086px;fill:#231f20;stroke:#000000;stroke-width:5.1974;stroke-opacity:0;fill-opacity:1"
   x="30.429691"
   y="12.495121"
   id="text4"><tspan
     id="tspan4"
     x="30.429691"
     y="12.495121"
     style="font-style:normal;font-variant:normal;font-weight:normal;font-stretch:normal;font-family:Impact;-inkscape-font-specification:Impact;stroke-width:5.1974;fill:#231f20;fill-opacity:1"
     sodipodi:role="line">LLEGÓ</tspan><tspan
     x="30.429691"
     y="22.808697"
     id="tspan5"
     style="stroke-width:5.1974;fill:#231f20;fill-opacity:1"
     sodipodi:role="line" /></text><text
   xml:space="preserve"
   style="font-style:normal;font-variant:normal;font-weight:normal;font-stretch:normal;font-size:8.2628px;font-family:Impact;-inkscape-font-specification:Impact;fill:#231f20;stroke:#000000;stroke-width:5.20492;stroke-opacity:0;fill-opacity:1"
   x="37.376118"
   y="19.579865"
   id="text6"><tspan
     sodipodi:role="line"
     id="tspan6"
     x="37.376118"
     y="19.579865"
     style="stroke-width:5.20492;fill:#231f20;fill-opacity:1">YETI !</tspan></text></svg>
