<?xml version="1.0" encoding="utf-8"?>
<!-- Generator: Adobe Illustrator 24.0.3, SVG Export Plug-In . SVG Version: 6.00 Build 0)  -->
<svg version="1.1" id="Capa_1" xmlns="http://www.w3.org/2000/svg" xmlns:xlink="http://www.w3.org/1999/xlink" x="0px" y="0px"
	 viewBox="0 0 98 26" style="enable-background:new 0 0 98 26;" xml:space="preserve">
<style type="text/css">
	.st0{fill-rule:evenodd;clip-rule:evenodd;fill:#231F20;}
</style>
<g>
	<path class="st0" d="M11.2,6.3c0.1,2.3,1.7,2.9,4.1,2.9c1.5,0,3.1,0,4.6,0c1.4,0,3.4-0.3,4.2,0.5c1,1,0.2,2.5-1.2,2.6
		c-3,0.2-6.2-0.1-9.2,0c-0.4,0.5-1.1,3.6-1.3,4.6c-1.4,5.5-1.9,4.6,1.6,4.6c2.4,0,2.5-1.3,3.2-4.5c2.7,0,6.6,0.4,8.7-0.7
		c5.1-2.6,4.2-9.7-0.6-11.5c-1.9-0.7-6.6-0.4-8.9-0.4c-1.3,0-3.6-0.1-4.8,0C11,4.5,11.1,5,11.2,6.3"/>
	<path class="st0" d="M52.6,17.1c0.2-0.9,1.6-7.3,1.5-7.8l-1.6,0c-0.3,0.7-0.3,2.2-0.7,2.8c-0.3-0.3-0.6-0.6-1.3-0.8
		C49,11,47.4,11.9,47,13.7c-0.7,3.4,2.5,4.3,3.8,2.9l0.2,0.4L52.6,17.1z M49.9,13c1.8-0.7,2,2.1,0.5,2.6
		C48.6,16.2,48.2,13.7,49.9,13z"/>
	<path class="st0" d="M62.6,17c0.2-0.8,1.5-7.1,1.5-7.7c-0.4-0.1-1.2-0.1-1.6,0c-0.1,0.2-0.1,0-0.1,0.3l-0.2,1.1
		c-0.1,0.5-0.2,1-0.3,1.4c-0.5-0.3-0.6-0.7-1.4-0.8c-3.4-0.8-4.7,4-2.7,5.5c1,0.7,2.2,0.6,3-0.1C61.2,17.2,60.7,17.1,62.6,17
		 M59.9,13c1.8-0.7,2,2,0.5,2.6C58.7,16.2,58.2,13.7,59.9,13z"/>
	<path class="st0" d="M35.3,14.4c1.2,0,2.7,0.1,3.7-0.4c0.8-0.5,1.4-1.4,1.3-2.7c-0.3-2.5-3.4-2.2-5.8-2.1c-0.3,0.6-1.1,5.5-1.4,6.9
		c-0.1,0.7-0.2,0.7,0,0.8c0.4,0.1,1.3,0.1,1.7-0.1C35,16.7,35.2,15,35.3,14.4 M36,10.9c1-0.1,2.5-0.2,2.3,1
		c-0.2,1.1-1.7,0.9-2.7,0.9L36,10.9z"/>
	<path class="st0" d="M85.8,17.2c0.2-0.9,1.1-5.1,1-5.6l-1.5,0L85.1,12c-0.9-1-4-0.7-4.7,2.1c-0.7,2.6,1.6,3.9,3.7,2.6
		c0,0,0.1,0.2,0.1,0.2c0.1,0.2,0,0.1,0.2,0.3L85.8,17.2z M83.3,13.2c1.7-0.6,1.9,2,0.4,2.5C82,16.3,81.7,13.7,83.3,13.2z"/>
	<path class="st0" d="M77.7,17.3c0.7,0,0.7-0.2,0.8-0.9c0.1-0.5,0.2-0.8,0.2-1.3c0.2-1.2,1.9-2.9,2.6-3.9c0.3-0.4,1.2-1.3,1.3-1.8
		l-1.9,0c-0.7,0-1.7,2.1-2.4,2.9c-0.1,0.1-0.1,0.1-0.2,0.2c-0.1-0.5-0.3-1.1-0.5-1.6c-0.4-1.2-0.1-1.8-2.5-1.4
		c0.1,0.6,1.1,3.1,1.4,3.8c0.4,1,0.5,0.9,0.2,2.1C76.3,17.6,76.1,17.3,77.7,17.3"/>
	<path class="st0" d="M70,15.1c1.4-4.2-4.6-5.2-5.9-1.7c-0.7,1.8,0.4,3.4,1.9,3.8C68,17.6,69.5,16.5,70,15.1 M66.7,13.1
		c1.8-0.7,2.2,1.8,0.8,2.4c-0.8,0.3-1.5,0-1.7-0.7C65.6,13.9,66,13.4,66.7,13.1z"/>
	<path class="st0" d="M42,14.7c1.1,0,2.2,0,3.3,0c0.8,0,0.9,0.2,1-0.7c0.1-0.5,0-1-0.1-1.4c-0.5-1.5-2.7-1.9-4.3-0.9
		c-1.2,0.7-2.1,2.9-1,4.4c0.9,1.2,3.2,1.4,4.6,0.3c-0.1-0.4-0.6-0.8-0.9-1.1C44.2,15.5,42.3,16.4,42,14.7 M42.3,13.4
		c0.2-1.1,2.5-1.3,2.4,0.1L42.3,13.4z"/>
	<path class="st0" d="M74.9,11.8c-1.3-0.8-3.6-0.7-4,0.7c-0.3,0.9,0.1,1.7,0.6,2c1.2,0.9,1.6,0.5,1.5,1.2c-0.9,0.2-1.4-0.2-2.2-0.5
		c-0.3,0.2-0.7,0.9-0.7,1.3c1.4,1.2,5.1,1.1,4.6-1.5c-0.1-0.4-0.3-0.6-0.5-0.9c-0.4-0.4-1.6-0.6-1.7-1.2c0.7-0.4,1.3,0.1,1.9,0.2
		L74.9,11.8z"/>
	<polygon class="st0" points="56.5,11.9 54.8,11.9 53.8,17.1 55.5,17.1 	"/>
	<path class="st0" d="M57,10.3c0.6-1.4-1.5-1.8-1.9-0.5C54.5,11.2,56.5,11.6,57,10.3"/>
</g>
</svg>
